# File created by Blade
# Date/Time:  Thu Sep 25 19:32:06 2014
# Frame Rate: 120.000 fps
#------------------------------------------------------
:FULLY-SPECIFIED
:DEGREES
1165
root -4.536877 32.335834 -3.487534 13.171164 27.647277 -0.824162
Spine 5.245653 11.214123 23.619591
Head 21.757397 -23.631564 -11.437415
LeftShoulder -13.534715 15.559914 17.418953
LeftArm 18.885261 -38.378956 -45.163804
LeftForeArm -25.493377 0.000000 24.268342
LeftHand -20.796769 -0.000000 3.194344
LeftHandThumb1 -26.253704 0.000000 33.147579
RightShoulder -14.578188 14.514871 -28.551457
RightArm -3.238608 -11.150476 67.338337
RightForeArm -0.772762 0.000000 24.141683
RightHand -0.707382 -0.000000 10.846213
RightHandThumb1 -24.326973 -0.000000 -32.862282
LeftUpLeg -3.185108 -10.821049 -8.390440
LeftLeg 0.517893 -0.000000 -0.000000
LeftFoot -9.425468 -7.729726 -10.061559
LeftToeBase 11.049903 -0.000000 -0.000000
RightUpLeg -27.613845 -11.828676 15.057294
RightLeg 21.059389 -0.000000 -0.000000
RightFoot -11.482479 -10.662193 0.456851
RightToeBase 0.343603 -0.000000 -0.000000
1166
root -4.498184 32.331388 -3.519026 12.977992 27.572626 -0.744580
Spine 5.145939 11.162432 24.023526
Head 21.632944 -24.091041 -11.558670
LeftShoulder -13.394682 15.398960 17.948050
LeftArm 18.794108 -39.258799 -44.446518
LeftForeArm -26.052011 -0.000000 24.383883
LeftHand -20.444489 0.000000 2.916401
LeftHandThumb1 -26.253704 0.000000 33.147579
RightShoulder -14.720645 14.279112 -28.125406
RightArm -3.527947 -11.222958 68.141356
RightForeArm -0.978932 -0.000000 23.417841
RightHand -0.908622 -0.000000 10.840214
RightHandThumb1 -24.326973 -0.000000 -32.862282
LeftUpLeg -2.990178 -11.015949 -8.552469
LeftLeg 0.536214 -0.000000 -0.000000
LeftFoot -9.462169 -7.620406 -10.423509
LeftToeBase 11.445365 -0.000000 -0.000000
RightUpLeg -27.284731 -12.077542 14.945707
RightLeg 20.788493 -0.000000 -0.000000
RightFoot -11.670537 -10.640358 0.312924
RightToeBase 0.516461 -0.000000 -0.000000
1167
root -4.455867 32.324423 -3.549522 12.778816 27.421304 -0.653554
Spine 5.053947 11.134186 24.412855
Head 21.524284 -24.449969 -11.669343
LeftShoulder -13.239855 15.178713 18.469645
LeftArm 18.664609 -40.001814 -43.632380
LeftForeArm -26.371979 -0.000000 24.373588
LeftHand -20.098624 0.000000 2.964469
LeftHandThumb1 -26.253704 0.000000 33.147579
RightShoulder -14.808813 14.077405 -27.747087
RightArm -3.893963 -11.324506 68.931775
RightForeArm -1.298951 -0.000000 22.744072
RightHand -0.930270 -0.000000 11.101007
RightHandThumb1 -24.326973 -0.000000 -32.862282
LeftUpLeg -2.749669 -11.127094 -8.756323
LeftLeg 0.488660 -0.000000 -0.000000
LeftFoot -9.480124 -7.480132 -10.850457
LeftToeBase 11.715390 -0.000000 -0.000000
RightUpLeg -26.923172 -12.155649 14.761407
RightLeg 20.524355 -0.000000 -0.000000
RightFoot -11.878853 -10.709789 0.189394
RightToeBase 0.627951 -0.000000 -0.000000
1168
root -4.412314 32.318788 -3.573296 12.601998 27.287153 -0.608945
Spine 4.887062 11.125395 24.853291
Head 21.492496 -24.804744 -11.888925
LeftShoulder -13.142131 14.951798 18.954787
LeftArm 18.584026 -40.713844 -42.831473
LeftForeArm -26.528780 0.000000 24.347061
LeftHand -19.597645 -0.000000 2.497225
LeftHandThumb1 -26.253704 0.000000 33.147579
RightShoulder -14.949271 13.818736 -27.348768
RightArm -4.264932 -11.450039 69.645193
RightForeArm -1.543390 -0.000000 22.205690
RightHand -1.111233 0.000000 11.301077
RightHandThumb1 -24.326973 -0.000000 -32.862282
LeftUpLeg -2.523632 -11.196288 -8.913403
LeftLeg 0.404770 -0.000000 -0.000000
LeftFoot -9.480922 -7.389748 -11.242598
LeftToeBase 11.993610 -0.000000 -0.000000
RightUpLeg -26.587054 -12.269638 14.649079
RightLeg 20.246080 -0.000000 -0.000000
RightFoot -12.075052 -10.752719 0.152094
RightToeBase 0.692277 -0.000000 -0.000000
1169
root -4.372081 32.310255 -3.605237 12.462169 26.987954 -0.548117
Spine 4.769638 11.298992 25.217285
Head 21.399628 -25.145887 -11.962295
LeftShoulder -12.909087 14.656492 19.519859
LeftArm 18.270901 -41.444708 -41.921760
LeftForeArm -26.855128 -0.000000 24.473122
LeftHand -19.456161 -0.000000 2.115135
LeftHandThumb1 -26.253704 0.000000 33.147579
RightShoulder -15.137877 13.595824 -26.967543
RightArm -4.657614 -11.766786 70.341300
RightForeArm -1.695106 -0.000000 21.685663
RightHand -1.269651 -0.000000 11.575919
RightHandThumb1 -24.326973 -0.000000 -32.862282
LeftUpLeg -2.349275 -11.019592 -9.111570
LeftLeg 0.309590 -0.000000 -0.000000
LeftFoot -9.485540 -7.408471 -11.677436
LeftToeBase 12.222523 -0.000000 -0.000000
RightUpLeg -26.308551 -12.077526 14.445846
RightLeg 20.076872 -0.000000 -0.000000
RightFoot -12.283232 -10.956356 0.134822
RightToeBase 0.800963 -0.000000 -0.000000
